<svg xmlns="http://www.w3.org/2000/svg" viewBox="0 0 512.005 512.005"><path d="M307.204 255.997c17.237 0 31.394-12.894 33.664-29.525l31.189-23.381a8.527 8.527 0 0 0 1.707-11.947c-2.825-3.772-8.175-4.548-11.947-1.707l-21.751 16.316c-3.251-10.402-12.86-18.022-24.328-18.022h-34.133c-14.114 0-25.6 11.486-25.6 25.6 0-14.114-11.486-25.6-25.6-25.6H196.27c-11.469 0-21.077 7.62-24.329 18.022l-21.751-16.316c-3.763-2.825-9.122-2.057-11.947 1.707a8.527 8.527 0 0 0 1.707 11.947l31.189 23.381c2.27 16.631 16.418 29.525 33.664 29.525h17.067c18.825 0 34.133-15.309 34.133-34.133 0 18.825 15.309 34.133 34.133 34.133h17.068zm-68.267-34.133c0 9.412-7.663 17.067-17.067 17.067h-17.067c-9.404 0-17.067-7.654-17.067-17.067v-8.533c0-4.702 3.823-8.533 8.533-8.533h34.133c4.71 0 8.533 3.831 8.533 8.533v8.533zm34.133 0v-8.533c0-4.702 3.823-8.533 8.533-8.533h34.133c4.71 0 8.533 3.831 8.533 8.533v8.533c0 9.412-7.663 17.067-17.067 17.067h-17.067c-9.402-.001-17.065-7.655-17.065-17.067zM511.748 501.39l-8.721-34.756c-4.378-13.158-30.285-55.484-178.756-56.636v-8.934c0-4.71-3.814-8.533-8.533-8.533s-8.533 3.823-8.533 8.533v17.067c0 .06.034.111.034.171 0 .051-.034.094-.034.154-.034 5.205-1.749 50.876-51.2 50.876s-51.166-45.986-51.2-51.2v-17.067c0-4.71-3.814-8.533-8.533-8.533s-8.533 3.823-8.533 8.533v8.619c-110.577.869-165.95 18.516-178.946 57.573L.26 501.39c-1.152 4.574 1.638 9.207 6.212 10.351 4.557 1.161 9.199-1.638 10.342-6.204l8.346-33.51c9.916-29.739 63.317-44.595 163.14-45.338 3.098 24.431 19.703 59.708 67.703 59.708 47.974 0 64.589-35.063 67.703-59.366 116.958.862 157.619 28.467 162.953 44.373l8.533 34.133a8.535 8.535 0 0 0 8.269 6.46c.683 0 1.382-.077 2.074-.256a8.537 8.537 0 0 0 6.213-10.351zM58.636 42.595l196.267 25.6c.367.043.734.068 1.101.068s.734-.026 1.101-.068L443.737 43.85v29.628c-5.35 6.016-17.067 21.026-17.067 37.453 0 18.782 15.309 25.6 25.6 25.6s25.6-6.818 25.6-25.6c0-16.427-11.716-31.437-17.067-37.453V34.13a8.445 8.445 0 0 0-.64-3.183c-.145-.35-.393-.623-.58-.947-.333-.597-.666-1.186-1.126-1.681-.299-.316-.657-.529-.998-.785-.486-.393-.964-.768-1.527-1.041-.418-.205-.862-.29-1.314-.418-.418-.128-.794-.35-1.246-.41L257.105.065a9.54 9.54 0 0 0-2.202 0l-196.267 25.6a8.541 8.541 0 0 0-7.432 8.465 8.541 8.541 0 0 0 7.432 8.465zm402.168 68.335c0 6.81-4.617 8.405-8.533 8.533-3.917-.128-8.533-1.724-8.533-8.533 0-7.083 4.352-14.985 8.533-20.813 4.181 5.829 8.533 13.731 8.533 20.813zm-204.8-93.798L386.299 34.13 256.004 51.129 125.708 34.13l130.296-16.998zm19.669 292.471c-.273.247-6.707 6.127-19.669 6.127-12.774 0-19.209-5.709-19.652-6.118-3.319-3.251-8.67-3.226-11.981.085a8.523 8.523 0 0 0 0 12.066c1.126 1.126 11.605 11.034 31.633 11.034s30.507-9.907 31.633-11.034c3.294-3.294 3.285-8.567.051-11.913-3.251-3.344-8.61-3.438-12.015-.247z"/><path d="M119.47 172.123c-9.933 3.524-17.067 13.013-17.067 24.141v34.133c0 11.904 8.166 21.939 19.2 24.789 4.565 13.466 17.178 49.98 24.371 64.358 13.551 27.11 51.977 72.986 110.029 72.986s96.478-45.875 110.029-72.986c7.194-14.379 19.806-50.893 24.371-64.358 11.034-2.85 19.2-12.885 19.2-24.789v-34.133c0-11.127-7.134-20.617-17.067-24.141v-9.992c0-4.71-3.814-8.533-8.533-8.533s-8.533 3.823-8.533 8.533v17.067a8.53 8.53 0 0 0 8.533 8.533c4.71 0 8.533 3.831 8.533 8.533v34.133c0 4.702-3.823 8.533-8.533 8.533a8.508 8.508 0 0 0-8.09 5.837c-.179.503-16.981 50.816-25.139 67.149-1.306 2.594-32.495 63.548-94.771 63.548s-93.466-60.954-94.771-63.548c-8.166-16.333-24.96-66.645-25.139-67.149a8.516 8.516 0 0 0-8.09-5.837c-4.71 0-8.533-3.831-8.533-8.533v-34.133c0-4.702 3.823-8.533 8.533-8.533a8.53 8.53 0 0 0 8.533-8.533V162.13c0-4.71-3.814-8.533-8.533-8.533s-8.533 3.823-8.533 8.533v9.993z"/><path d="M128.004 59.73a8.53 8.53 0 0 0-8.533 8.533v59.733a8.541 8.541 0 0 0 4.719 7.637c2.167 1.075 53.896 26.496 131.814 26.496s129.647-25.421 131.814-26.496a8.542 8.542 0 0 0 4.719-7.637V68.264c0-4.71-3.814-8.533-8.533-8.533s-8.533 3.823-8.533 8.533v54.212c-14.114 5.982-58.778 22.588-119.467 22.588s-105.353-16.606-119.467-22.588V68.264a8.53 8.53 0 0 0-8.533-8.534z"/></svg>