<svg xmlns="http://www.w3.org/2000/svg" viewBox="0 0 512 512"><path d="M162.133 256h34.133c4.719 0 8.533-3.823 8.533-8.533s-3.814-8.533-8.533-8.533h-34.133c-4.719 0-8.533 3.823-8.533 8.533s3.814 8.533 8.533 8.533zM128 204.8c4.719 0 8.533-3.823 8.533-8.533s-3.814-8.533-8.533-8.533H93.867a8.53 8.53 0 0 0-8.533 8.533v68.267a8.53 8.53 0 0 0 8.533 8.533H128a8.53 8.53 0 0 0 8.533-8.533 8.53 8.53 0 0 0-8.533-8.533h-25.6v-17.067H128c4.719 0 8.533-3.823 8.533-8.533s-3.814-8.533-8.533-8.533h-25.6V204.8H128zm128 204.8a8.53 8.53 0 0 0-8.533 8.533V440.2l-57.233 57.233a8.525 8.525 0 0 0 0 12.066 8.51 8.51 0 0 0 6.033 2.5 8.509 8.509 0 0 0 6.033-2.5l59.733-59.733a8.56 8.56 0 0 0 2.5-6.033v-25.6A8.53 8.53 0 0 0 256 409.6zm31.633 53.7a8.523 8.523 0 0 0-12.066 0 8.523 8.523 0 0 0 0 12.066L309.7 509.5a8.51 8.51 0 0 0 6.033 2.5 8.509 8.509 0 0 0 6.033-2.5 8.523 8.523 0 0 0 0-12.066L287.633 463.3z"/><path d="M503.467 17.067H264.533V8.533C264.533 3.823 260.719 0 256 0s-8.533 3.823-8.533 8.533v8.533H8.533A8.532 8.532 0 0 0 0 25.6v34.133a8.53 8.53 0 0 0 8.533 8.533h443.733c4.719 0 8.533-3.823 8.533-8.533s-3.814-8.533-8.533-8.533h-435.2V34.133h477.867V51.2H486.4a8.53 8.53 0 0 0-8.533 8.533v290.133c0 14.114-11.486 25.6-25.6 25.6H59.733c-14.114 0-25.6-11.486-25.6-25.6v-256c0-4.71-3.814-8.533-8.533-8.533s-8.533 3.823-8.533 8.533v256c0 23.526 19.14 42.667 42.667 42.667h392.533c23.526 0 42.667-19.14 42.667-42.667v-281.6h8.533A8.53 8.53 0 0 0 512 59.733V25.6a8.53 8.53 0 0 0-8.533-8.533z"/><path d="M426.667 196.267c0-14.114-11.486-25.6-25.6-25.6s-25.6 11.486-25.6 25.6A8.53 8.53 0 0 0 384 204.8a8.53 8.53 0 0 0 8.533-8.533c0-4.702 3.823-8.533 8.533-8.533s8.533 3.831 8.533 8.508c-.205 2.645-6.861 9.762-13.653 14.532l-17.067 12.8a8.526 8.526 0 0 0-2.97 9.523 8.508 8.508 0 0 0 8.09 5.837h34.133c4.719 0 8.533-3.823 8.533-8.533s-3.814-8.533-8.533-8.533h-8.516c6.529-5.164 17.051-15.114 17.051-25.601zM332.8 204.8c4.71 0 8.533 3.831 8.533 8.533 0 4.71 3.814 8.533 8.533 8.533s8.533-3.823 8.533-8.533c0-14.114-11.486-25.6-25.6-25.6s-25.6 11.486-25.6 25.6v34.133c0 14.114 11.486 25.6 25.6 25.6s25.6-11.486 25.6-25.6c0-4.71-3.814-8.533-8.533-8.533s-8.533 3.823-8.533 8.533c0 4.702-3.823 8.533-8.533 8.533-4.71 0-8.533-3.831-8.533-8.533v-34.133c0-4.702 3.823-8.533 8.533-8.533zm-51.2 68.267a8.53 8.53 0 0 0 8.533-8.533v-68.267a8.534 8.534 0 0 0-5.837-8.098 8.564 8.564 0 0 0-9.523 2.978L256 216.183l-18.773-25.037a8.534 8.534 0 0 0-15.36 5.12v68.267c0 4.71 3.814 8.533 8.533 8.533s8.533-3.823 8.533-8.533v-42.667l10.24 13.653c3.217 4.301 10.436 4.301 13.653 0l10.24-13.653v42.667a8.532 8.532 0 0 0 8.534 8.534zm-119.467-51.2h34.133a8.53 8.53 0 0 0 8.533-8.533 8.53 8.53 0 0 0-8.533-8.533h-34.133a8.53 8.53 0 0 0-8.533 8.533 8.53 8.53 0 0 0 8.533 8.533z"/></svg>