<svg xmlns="http://www.w3.org/2000/svg" viewBox="0 0 512 512"><path d="M360.465 443.988c-4.574-1.161-9.207 1.638-10.342 6.204l-8.533 34.133c-1.152 4.582 1.638 9.207 6.212 10.351a8.272 8.272 0 0 0 2.074.256 8.535 8.535 0 0 0 8.269-6.46l8.533-34.133a8.537 8.537 0 0 0-6.213-10.351zM256 273.066a8.453 8.453 0 0 0 3.26-.648l93.867-38.844c4.352-1.801 6.417-6.793 4.617-11.145-1.801-4.361-6.81-6.409-11.153-4.625L256 255.299 17.067 156.432v-2.833c0-4.71-3.823-8.533-8.533-8.533S0 148.889 0 153.599v8.533a8.524 8.524 0 0 0 5.274 7.885l247.467 102.4c1.04.435 2.15.649 3.259.649zm101.513 87.424a8.522 8.522 0 0 0-11.426-3.874c-16.205 8.013-43.273 17.331-81.553 18.603v-76.553c0-4.71-3.823-8.533-8.533-8.533s-8.533 3.823-8.533 8.533v76.476c-105.958-3.379-140.151-67.567-145.067-78.251v-57.958a8.536 8.536 0 0 0-8.533-8.533 8.536 8.536 0 0 0-8.533 8.533v59.733c0 1.084.205 2.159.606 3.174 1.485 3.695 37.803 90.692 170.061 90.692 46.225 0 78.618-11.213 97.647-20.617 4.23-2.09 5.963-7.201 3.864-11.425zM384 452.266a8.53 8.53 0 0 0-8.533 8.533v25.6a8.53 8.53 0 0 0 8.533 8.533 8.53 8.53 0 0 0 8.533-8.533v-25.6a8.53 8.53 0 0 0-8.533-8.533z"/><path d="M503.467 145.066a8.53 8.53 0 0 0-8.533 8.533v2.816l-102.4 42.146v-15.42l114.193-47.258a8.525 8.525 0 0 0 5.274-7.885 8.539 8.539 0 0 0-5.265-7.885L259.26 17.714a8.54 8.54 0 0 0-6.519 0L5.274 120.114a8.533 8.533 0 0 0 0 15.77l247.467 102.4c1.041.435 2.15.649 3.26.649s2.219-.213 3.26-.649l89.481-37.026c4.361-1.792 6.426-6.784 4.625-11.145-1.801-4.352-6.793-6.409-11.145-4.617L256 221.166 30.848 127.999 256 34.832l225.152 93.167-97.971 40.542-93.841-35.038c.495-1.775.794-3.601.794-5.504 0-14.353-14.993-25.6-34.133-25.6s-34.133 11.247-34.133 25.6c0 14.353 14.993 25.6 34.133 25.6 8.542 0 16.162-2.33 22.084-6.084l97.382 36.361v210.228c-9.907 3.541-17.067 12.919-17.067 24.03 0 14.114 11.486 25.6 25.6 25.6s25.6-11.486 25.6-25.6c0-11.11-7.159-20.488-17.067-24.03v-48.435c24.499-18.492 33.28-43.119 33.664-44.211a8.631 8.631 0 0 0 .469-2.79v-59.733c0-4.71-3.814-8.533-8.533-8.533s-8.533 3.823-8.533 8.533v58.155c-1.476 3.618-6.605 14.771-17.067 25.779v-105.85l114.185-46.993a8.53 8.53 0 0 0 5.282-7.893V153.6a8.53 8.53 0 0 0-8.533-8.534zM256 136.532c-10.419 0-17.067-5.052-17.067-8.533 0-3.482 6.647-8.533 17.067-8.533s17.067 5.052 17.067 8.533c0 3.482-6.648 8.533-17.067 8.533zm128 290.134c-4.71 0-8.533-3.831-8.533-8.533S379.29 409.6 384 409.6s8.533 3.831 8.533 8.533c0 4.701-3.823 8.533-8.533 8.533zm33.877 23.526c-1.143-4.565-5.786-7.356-10.342-6.204a8.535 8.535 0 0 0-6.212 10.351l8.533 34.133a8.535 8.535 0 0 0 8.269 6.46c.683 0 1.382-.077 2.074-.256a8.531 8.531 0 0 0 6.212-10.351l-8.534-34.133z"/></svg>